<?xml version="1.0" standalone="no"?><!DOCTYPE svg PUBLIC "-//W3C//DTD SVG 1.1//EN" "http://www.w3.org/Graphics/SVG/1.1/DTD/svg11.dtd"><svg t="1670765632978" class="icon" viewBox="0 0 1024 1024" version="1.1" xmlns="http://www.w3.org/2000/svg" p-id="17982" xmlns:xlink="http://www.w3.org/1999/xlink" width="200" height="200"><path d="M772.1984 119.6032H256.0512c-82.1248 0-148.8896 66.816-148.8896 148.8896v364.9536c0 82.1248 66.816 148.9408 148.8896 148.9408h516.1472c82.1248 0 148.8896-66.816 148.8896-148.9408V268.544c0-82.1248-66.816-148.9408-148.8896-148.9408zM723.2512 911.8208h-418.304c-16.9472 0-30.72-13.7728-30.72-30.72s13.7728-30.72 30.72-30.72h418.304c16.9472 0 30.72 13.7728 30.72 30.72s-13.7216 30.72-30.72 30.72z" fill="#7B79FF" p-id="17983"></path><path d="M514.8672 665.1392c-3.8912 0-7.8336-0.7168-11.52-2.1504-7.2192-2.7648-177.0496-69.3248-177.0496-208.896V328.448c0-12.8512 7.6288-24.4736 19.4048-29.5936L501.248 231.1168c8.192-3.584 17.5616-3.584 25.7536 0l155.5456 67.7376c11.776 5.12 19.4048 16.7424 19.4048 29.5936v125.6448c0 138.1376-168.0896 205.9264-175.2576 208.7936-3.7888 1.4848-7.7824 2.2528-11.8272 2.2528zM390.8096 349.5936v104.4992c0 78.2336 90.9312 128 123.904 143.4624 32.6656-15.7184 122.6752-66.048 122.6752-143.4624V349.5936L514.0992 295.936 390.8096 349.5936z" fill="#FFFFFF" p-id="17984"></path><path d="M501.8624 517.888c-8.5504 0-16.7424-3.3792-22.8352-9.472l-51.0464-51.0976a32.26112 32.26112 0 0 1 45.6192-45.6192l27.9552 27.9552 57.6-59.136c12.4416-12.7488 32.8704-13.056 45.6192-0.6144 12.7488 12.4416 13.056 32.8704 0.6144 45.6192l-80.384 82.5856a32.48128 32.48128 0 0 1-22.8864 9.7792h-0.256z" fill="#FFFFFF" p-id="17985"></path></svg>