<?xml version="1.0" standalone="no"?><!DOCTYPE svg PUBLIC "-//W3C//DTD SVG 1.1//EN" "http://www.w3.org/Graphics/SVG/1.1/DTD/svg11.dtd"><svg t="1671112486707" class="icon" viewBox="0 0 1024 1024" version="1.1" xmlns="http://www.w3.org/2000/svg" p-id="5397" xmlns:xlink="http://www.w3.org/1999/xlink" width="200" height="200"><path d="M886.78 190.21H768v-33a54.92 54.92 0 0 0-54.86-54.86h-36.57a54.92 54.92 0 0 0-54.86 54.86v33.53h-220v-33.53a54.92 54.92 0 0 0-54.86-54.86h-36.54a54.92 54.92 0 0 0-54.86 54.86v33H137.22c-40.37 0-73.22 33.15-73.22 73.88v112.55h896V264.09c0-40.73-32.85-73.88-73.22-73.88zM365.17 208.5v58.43a18.31 18.31 0 0 1-18.29 18.28h-36.57A18.31 18.31 0 0 1 292 266.93V157.21a18.31 18.31 0 0 1 18.29-18.29h36.57a18.31 18.31 0 0 1 18.29 18.29z m366.26 0v58.43a18.31 18.31 0 0 1-18.29 18.28h-36.57a18.31 18.31 0 0 1-18.29-18.28V157.21a18.31 18.31 0 0 1 18.29-18.29h36.57a18.31 18.31 0 0 1 18.29 18.29zM64 847.77c0 40.73 32.85 73.88 73.22 73.88h749.56c40.38 0 73.22-33.14 73.22-73.88V413.21H64z m676.57-306.56a36.57 36.57 0 0 1 36.57-36.57h36.57a36.57 36.57 0 0 1 36.57 36.57v36.57a36.57 36.57 0 0 1-36.57 36.57h-36.57a36.57 36.57 0 0 1-36.57-36.57z m-182.86 0a36.57 36.57 0 0 1 36.57-36.57h36.57a36.57 36.57 0 0 1 36.57 36.57v36.57a36.57 36.57 0 0 1-36.57 36.57h-36.56a36.57 36.57 0 0 1-36.57-36.57z m0 182.86a36.57 36.57 0 0 1 36.57-36.57h36.57a36.57 36.57 0 0 1 36.57 36.57v36.57a36.57 36.57 0 0 1-36.57 36.57h-36.56a36.57 36.57 0 0 1-36.57-36.57zM374.86 541.21a36.57 36.57 0 0 1 36.57-36.57H448a36.57 36.57 0 0 1 36.57 36.57v36.57A36.57 36.57 0 0 1 448 614.36h-36.57a36.57 36.57 0 0 1-36.57-36.57z m0 182.86a36.57 36.57 0 0 1 36.57-36.57H448a36.57 36.57 0 0 1 36.57 36.57v36.57A36.57 36.57 0 0 1 448 797.21h-36.57a36.57 36.57 0 0 1-36.57-36.57z m-182.86 0a36.57 36.57 0 0 1 36.57-36.57h36.57a36.57 36.57 0 0 1 36.57 36.57v36.57a36.57 36.57 0 0 1-36.57 36.57h-36.57A36.57 36.57 0 0 1 192 760.64z" fill="#22B573" p-id="5398"></path></svg>